<svg xmlns="http://www.w3.org/2000/svg" fill="none" viewBox="0 0 52 52" class="button-base_icon__6i_0K color-button_icon__T4axR"><g fill="currentColor" clip-path="url(#i107)"><g filter="url(#i106)" opacity="0.7"><path d="m34.528 23.418.244.373c2.743 4.21 2.13 9.722-1.474 13.254a10.942 10.942 0 0 1-7.679 3.117l8.91-16.744Z" opacity="0.6"></path><path d="m25.619 28.507 8.908-5.089-8.909 16.744V28.507Z" opacity="0.2"></path><path d="m16.701 23.418-.243.373c-2.744 4.21-2.131 9.722 1.473 13.254a10.942 10.942 0 0 0 7.68 3.117L16.7 23.418Z"></path><path d="M25.608 28.507 16.7 23.418l8.91 16.744V28.507Z" opacity="0.6"></path><path d="M25.622 17.138v8.777l7.674-4.386-7.674-4.39Z" opacity="0.2"></path><path d="m25.62 17.138-7.68 4.391 7.68 4.386v-8.777Z" opacity="0.6"></path><path d="m25.62 9.757-7.68 11.775 7.68-4.403V9.757Z"></path><path d="m25.622 17.128 7.68 4.403-7.68-11.781v7.378Z" opacity="0.6"></path></g><path d="m35.23 23.17.251.383c2.842 4.325 2.207 9.99-1.525 13.619-2.196 2.135-5.073 3.203-7.951 3.203l9.225-17.206Z" opacity="0.6"></path><path d="m26.004 28.399 9.224-5.23-9.224 17.206V28.399Z" opacity="0.2"></path><path d="m16.77 23.17-.251.383c-2.842 4.325-2.207 9.99 1.525 13.619 2.196 2.135 5.073 3.203 7.951 3.203L16.77 23.169Z"></path><path d="m25.992 28.399-9.224-5.23 9.224 17.206V28.399Z" opacity="0.6"></path><path d="M26.008 16.717v9.019l7.946-4.507-7.946-4.512Z" opacity="0.2"></path><path d="m26.005 16.717-7.952 4.512 7.951 4.507v-9.02Z" opacity="0.6"></path><path d="m26.005 9.132-7.952 12.1 7.951-4.525V9.132Z"></path><path d="m26.007 16.706 7.952 4.525-7.952-12.106v7.58Z" opacity="0.6"></path></g><rect width="51" height="51" x="0.5" y="0.5" stroke="#fff" stroke-opacity="0.31" rx="25.5"></rect><defs><clipPath id="i107"><rect width="50" height="50" x="1" y="1" fill="currentColor" rx="25"></rect></clipPath><filter id="i106" width="57.73" height="66.412" x="-3.25" y="-8.25" color-interpolation-filters="sRGB" filterUnits="userSpaceOnUse"><feFlood flood-opacity="0" result="BackgroundImageFix"></feFlood><feBlend in="SourceGraphic" in2="BackgroundImageFix" result="shape"></feBlend><feGaussianBlur result="effect1_foregroundBlur_11088_13572" stdDeviation="9"></feGaussianBlur></filter></defs></svg>